<svg xmlns="http://www.w3.org/2000/svg" width="1000" height="420" viewBox="0 0 1000 420">
  <rect width="1000" height="420" fill="#f6f8fa"/>
  <text x="80" y="70" fill="#111827" font-family="Arial" font-size="30" font-weight="bold">Repository Create Flow</text>
  <rect x="90" y="130" width="180" height="90" rx="12" fill="#ffffff" stroke="#d0d7de"/>
  <text x="132" y="168" fill="#111827" font-family="Arial" font-size="18">Step 1</text>
  <text x="118" y="198" fill="#111827" font-family="Arial" font-size="18">로그인</text>
  <line x1="270" y1="175" x2="340" y2="175" stroke="#6b7280" stroke-width="4" marker-end="url(#arrow)"/>
  <rect x="340" y="130" width="180" height="90" rx="12" fill="#ffffff" stroke="#d0d7de"/>
  <text x="382" y="168" fill="#111827" font-family="Arial" font-size="18">Step 2</text>
  <text x="370" y="198" fill="#111827" font-family="Arial" font-size="18">레포 생성</text>
  <line x1="520" y1="175" x2="590" y2="175" stroke="#6b7280" stroke-width="4" marker-end="url(#arrow)"/>
  <rect x="590" y="130" width="180" height="90" rx="12" fill="#ffffff" stroke="#d0d7de"/>
  <text x="632" y="168" fill="#111827" font-family="Arial" font-size="18">Step 3</text>
  <text x="620" y="198" fill="#111827" font-family="Arial" font-size="18">주소 복사</text>
  <line x1="770" y1="175" x2="840" y2="175" stroke="#6b7280" stroke-width="4" marker-end="url(#arrow)"/>
  <rect x="840" y="130" width="120" height="90" rx="12" fill="#ffffff" stroke="#d0d7de"/>
  <text x="872" y="168" fill="#111827" font-family="Arial" font-size="18">Step 4</text>
  <text x="872" y="198" fill="#111827" font-family="Arial" font-size="18">clone</text>
  <defs>
    <marker id="arrow" markerWidth="10" markerHeight="10" refX="8" refY="3" orient="auto" markerUnits="strokeWidth">
      <path d="M0,0 L0,6 L9,3 z" fill="#6b7280"/>
    </marker>
  </defs>
</svg>
